<svg width="27" height="27" viewBox="0 0 27 27" fill="none" xmlns="http://www.w3.org/2000/svg">
<g clip-path="url(#clip0_516_2)">
<path d="M10.4414 0.0843684C9.27598 0.33222 8.28984 1.3289 8.04199 2.50488C7.97871 2.79492 7.96289 3.34863 7.96289 5.12577V7.38281H9.01758H10.067L10.0828 5.09941L10.0986 2.81074L10.241 2.60507C10.3201 2.49433 10.473 2.3414 10.5838 2.26757L10.7789 2.13574H17.4814H24.1893L24.3949 2.27812C24.5057 2.35722 24.6586 2.51015 24.7324 2.62089L24.8643 2.81601V13.5V24.184L24.7324 24.3791C24.6586 24.4898 24.5057 24.6428 24.3949 24.7219L24.1893 24.8643H17.4814H10.7736L10.568 24.7219C10.4572 24.6428 10.3043 24.4898 10.2305 24.3791L10.0986 24.184L10.0828 21.9006L10.067 19.6172H9.01758H7.96289V21.8689C7.96289 23.6514 7.97871 24.2051 8.04199 24.4951C8.28984 25.6816 9.28125 26.673 10.4678 26.9209C11.0215 27.0369 23.9414 27.0369 24.4951 26.9209C25.6816 26.673 26.673 25.6816 26.9209 24.4951C27.0369 23.9414 27.0369 3.05859 26.9209 2.50488C26.673 1.31835 25.6816 0.326947 24.4951 0.079095C23.9572 -0.0316472 10.9635 -0.0316472 10.4414 0.0843684Z" fill="#626262"/>
<path d="M11.9443 9.28125L11.2061 10.0195L12.4189 11.2324L13.6318 12.4453H6.81328H0V13.5V14.5547H6.81328H13.6318L12.4189 15.7676L11.2061 16.9805L11.9602 17.7293L12.709 18.4834L15.198 15.9891L17.6924 13.5L15.2139 11.0215C13.8533 9.66094 12.7248 8.54297 12.709 8.54297C12.6932 8.54297 12.3504 8.8752 11.9443 9.28125Z" fill="#626262"/>
</g>
<defs>
<clipPath id="clip0_516_2">
<rect width="27" height="27" fill="white"/>
</clipPath>
</defs>
</svg>
