<svg width="29" height="29" viewBox="0 0 29 29" fill="none" xmlns="http://www.w3.org/2000/svg">
<path d="M13.7523 1.61423C13.4238 1.70486 12.8234 1.9824 12.5346 2.17498C11.8889 2.61677 11.3394 3.39275 11.2205 4.03845C11.1865 4.22537 11.2658 6.5363 11.4697 11.2318C11.6396 15.0381 11.7869 18.3119 11.8039 18.4988C11.9059 19.6769 12.6875 20.6851 13.758 21.0136C15.3836 21.5178 17.0601 20.283 17.2017 18.4705C17.2131 18.2666 17.3603 15.0097 17.5303 11.2375C17.7285 6.68357 17.8078 4.27068 17.7795 4.07244C17.6775 3.41541 17.1281 2.62244 16.4654 2.17498C16.1596 1.97107 15.5762 1.70486 15.225 1.60857C14.8568 1.51228 14.1092 1.51228 13.7523 1.61423ZM15.1004 3.47771C15.4572 3.64197 15.8537 3.99314 15.9443 4.2197C16.001 4.35564 15.9557 5.69236 15.7178 11.2148C15.5478 14.9701 15.4006 18.176 15.3892 18.3345C15.3326 18.9179 14.9701 19.3144 14.5 19.3144C14.0299 19.3144 13.6674 18.9179 13.6107 18.3345C13.5994 18.176 13.4465 14.9701 13.2822 11.2148C13.0387 5.66404 12.999 4.35564 13.0557 4.2197C13.2312 3.7949 13.9676 3.34177 14.5 3.34177C14.7096 3.34177 14.9078 3.38709 15.1004 3.47771Z" fill="black"/>
<path d="M14.0752 22.0898C12.5289 22.3617 11.5264 23.8117 11.8435 25.3296C12.0361 26.2699 12.7724 27.0742 13.7014 27.3574C14.9758 27.7539 16.3918 27.1308 16.9582 25.9244C17.5246 24.7066 17.1111 23.2339 15.9953 22.5089C15.4515 22.1578 14.6756 21.9878 14.0752 22.0898ZM14.9984 24.0269C15.7291 24.4744 15.3723 25.6582 14.5 25.6582C13.843 25.6582 13.4012 24.9558 13.6957 24.3781C13.8373 24.1062 13.9223 24.0269 14.1998 23.925C14.4547 23.8343 14.7435 23.8683 14.9984 24.0269Z" fill="black"/>
</svg>
