<?xml version="1.0" encoding="utf-8"?><svg viewBox="0 0 459 77" xmlns="http://www.w3.org/2000/svg" xmlns:xlink="http://www.w3.org/1999/xlink"><style>:root>svg{display:none}:root>svg:target{display:block}</style><svg fill="none" viewBox="0 0 16 15" id="Star" xmlns="http://www.w3.org/2000/svg"><path d="M7.528.359a.5.5 0 01.944 0l1.53 4.4a.5.5 0 00.462.336l4.657.095a.5.5 0 01.292.898l-3.712 2.814a.5.5 0 00-.176.543l1.348 4.46a.5.5 0 01-.764.555l-3.823-2.661a.5.5 0 00-.572 0l-3.823 2.66a.5.5 0 01-.765-.555l1.35-4.459a.5.5 0 00-.177-.543L.587 6.088a.5.5 0 01.292-.898l4.657-.095a.5.5 0 00.462-.336l1.53-4.4z" fill="#FFA800"/></svg><svg fill="none" viewBox="0 0 20 11" id="arrow-line" xmlns="http://www.w3.org/2000/svg"><path d="M19 10l-9-9-9 9" stroke="#fff" stroke-width="1.5" stroke-linecap="round" stroke-linejoin="round"/></svg><svg fill="none" viewBox="0 0 459 19" id="main-line" xmlns="http://www.w3.org/2000/svg"><path d="M137.612 5.721c-41.816-6.123-103.377-2.55-128.93 0-29.736 4.24 24.005 5.691 54.592 5.888 51.107-5.888 91.761-1.178 112.668 1.766 38.331 5.397 34.846 8.242 65.046 2.355 16.261-4.121 27.877-5.888 37.169-7.654l69.692-2.355c12.08 0 26.715 3.925 32.523 5.888 21.372 6.123 50.72 1.766 62.723-1.178 28.806-6.123 12.002-5.69 0-4.71-23.231 5.652-44.526 2.355-52.269 0-42.745-10.362-99.892-4.317-123.123 0-52.966 6.594-108.797 2.748-130.091 0z" fill="#039BE5"/></svg><svg fill="none" viewBox="0 0 170 14" id="offer-line" xmlns="http://www.w3.org/2000/svg"><path d="M119.033 4.216c15.487-4.512 38.287-1.88 47.752 0 11.013 3.123-8.891 4.193-20.22 4.338-18.928-4.338-33.985-.868-41.729 1.301-14.196 3.977-12.906 6.073-24.09 1.735-6.023-3.036-10.325-4.338-13.767-5.64L41.167 4.217c-4.474 0-9.895 2.892-12.046 4.338-7.915 4.511-18.785 1.301-23.23-.868-10.67-4.511-4.446-4.193 0-3.47 8.604 4.164 16.49 1.735 19.359 0 15.831-7.635 36.997-3.182 45.6 0 19.618 4.858 40.296 2.024 48.183 0z" fill="#039BE5"/></svg><svg fill="none" viewBox="0 0 107 14" id="reviews-line" xmlns="http://www.w3.org/2000/svg"><path d="M32.08 4.216c-9.748-4.512-24.1-1.88-30.056 0C-4.908 7.339 7.62 8.409 14.75 8.554c11.914-4.338 21.391-.868 26.265 1.301 8.935 3.977 8.123 6.073 15.163 1.735 3.79-3.036 6.498-4.338 8.665-5.64l16.246-1.734c2.816 0 6.228 2.892 7.582 4.338 4.982 4.511 11.823 1.301 14.621-.868 6.715-4.511 2.798-4.193 0-3.47-5.415 4.164-10.38 1.735-12.184 0-9.965-7.635-23.287-3.182-28.702 0-12.347 4.858-25.362 2.024-30.327 0z" fill="#039BE5"/></svg><svg fill="none" viewBox="0 0 99 77" id="slider-line" xmlns="http://www.w3.org/2000/svg"><path d="M69 66c16.4-4.4 26.5-4.167 29.5-3.5v11c-6.4-4-22.333-.667-29.5 1.5-20.8 7.2-30-12-32-22.5C31 21.3 9.833 4.5 0 0h6.5C28.1 12.4 39.167 36.167 42 46.5 46.8 64.9 62 67.167 69 66z" fill="#039BE5"/><path d="M77.437 39.647c11.987-2.643 19.37-2.503 21.563-2.103v6.608c-4.678-2.403-16.325-.4-21.563.9-15.204 4.326-21.93-7.208-23.391-13.515C49.66 12.795 34.188 2.703 27 0h4.751c15.79 7.449 23.878 21.726 25.95 27.933 3.508 11.053 14.619 12.414 19.736 11.714z" fill="#039BE5"/></svg><svg fill="none" viewBox="0 0 285 14" id="zaim-line" xmlns="http://www.w3.org/2000/svg"><path d="M199.555 4.216c25.963-4.512 64.188-1.88 80.054 0 18.464 3.123-14.905 4.193-33.897 4.338-31.733-4.338-56.975-.868-69.957 1.301-23.8 3.977-21.636 6.073-40.388 1.735-10.097-3.036-17.309-4.338-23.079-5.64L69.015 4.217c-7.5 0-16.588 2.892-20.194 4.338-13.27 4.511-31.493 1.301-38.945-.868-17.886-4.511-7.453-4.193 0-3.47C24.3 8.38 37.522 5.95 42.33 4.216c26.541-7.635 62.025-3.182 76.449 0 32.887 4.858 67.554 2.024 80.776 0z" fill="#039BE5"/></svg></svg>