<svg width="26" height="26" viewBox="0 0 26 26" fill="none" xmlns="http://www.w3.org/2000/svg">
<circle cx="13" cy="13" r="13" fill="#232325"/>
<path d="M13.1293 6.08104C12.873 6.21179 12.6769 6.4602 12.5959 6.76352C12.5776 6.82889 12.554 7.02239 12.5436 7.19497C12.5174 7.58982 12.4704 7.72318 12.1095 8.44226C11.8768 8.89987 11.814 9.00446 11.6859 9.1352C11.6022 9.21888 11.4898 9.31824 11.4323 9.35485C11.3747 9.39407 11.176 9.52482 10.9877 9.6451C10.8021 9.768 10.5667 9.93797 10.4648 10.0216C10.1667 10.2753 9.86595 10.6597 9.58878 11.1408C9.49203 11.3108 9.44757 11.3605 9.34036 11.4206C9.13902 11.533 8.93245 11.5749 8.42255 11.5984C7.93095 11.6219 7.7976 11.6507 7.58318 11.7736C7.41583 11.8704 7.22756 12.0691 7.15172 12.2312C6.99222 12.5685 7.00006 12.4352 7.00006 15.0579C7.00006 17.7799 6.99483 17.6989 7.19356 17.9865C7.32169 18.1774 7.49166 18.3003 7.72699 18.3761C7.88389 18.4284 7.98325 18.4363 8.67357 18.452C9.53386 18.4703 9.45019 18.4546 10.0411 18.7056C10.4778 18.8886 10.6766 18.9566 11.0636 19.056C12.0337 19.3018 13.1241 19.3933 15.0826 19.3933C16.0553 19.3933 16.1599 19.3881 16.3456 19.341C16.5809 19.2809 16.7352 19.2024 16.9418 19.0403C17.2373 18.8024 17.3706 18.4886 17.3471 18.078C17.3392 17.9447 17.3235 17.8061 17.3131 17.7643C17.3 17.7041 17.3052 17.6936 17.3497 17.6936C17.5589 17.6936 17.9616 17.4818 18.1734 17.2596C18.5813 16.8334 18.6597 16.1273 18.3564 15.607C18.3198 15.5468 18.2937 15.4919 18.2989 15.4867C18.3041 15.4841 18.3538 15.4527 18.4061 15.4213C18.5211 15.3533 18.7016 15.1546 18.7669 15.0265C18.8689 14.8251 18.9029 14.6264 18.8925 14.3152C18.8794 13.9727 18.8271 13.8106 18.6623 13.5935L18.5578 13.4576L18.6676 13.319C18.8062 13.1412 18.9081 12.9163 18.9604 12.6653C19.0127 12.4195 19.0127 12.294 18.9631 12.0612C18.8611 11.5775 18.5342 11.1826 18.1028 11.0179C18.0112 10.9839 17.4726 10.9055 16.356 10.7669C15.467 10.6571 14.7348 10.5577 14.727 10.5498C14.7191 10.5446 14.761 10.4086 14.8211 10.2517C14.9519 9.90397 15.114 9.27641 15.1689 8.90771C15.2264 8.50241 15.2709 7.82516 15.25 7.60028C15.1794 6.80536 14.842 6.319 14.2066 6.08889C14.0497 6.03136 13.9661 6.0209 13.6549 6.01044L13.2888 5.99998L13.1293 6.08104Z" fill="white"/>
</svg>
