<svg width="170" height="14" viewBox="0 0 170 14" fill="none" xmlns="http://www.w3.org/2000/svg">
<path d="M119.033 4.2157C134.52 -0.295915 157.32 2.33586 166.785 4.2157C177.798 7.33913 157.894 8.40918 146.565 8.55377C127.637 4.2157 112.58 7.68615 104.836 9.8552C90.6398 13.8318 91.9303 15.9285 80.7452 11.5904C74.7225 8.55377 70.4205 7.25235 66.9789 5.95092L41.167 4.2157C36.693 4.2157 31.2725 7.10775 29.1215 8.55377C21.2059 13.0654 10.3362 9.8552 5.89084 7.68615C-4.77805 3.17454 1.44548 3.49268 5.89084 4.2157C14.4948 8.38027 22.3817 5.95094 25.2497 4.2157C41.081 -3.41934 62.2467 1.03443 70.8506 4.2157C90.4676 9.07436 111.146 6.24014 119.033 4.2157Z" fill="#039BE5"/>
</svg>
