<svg width="35" height="35" viewBox="0 0 35 35" fill="none" xmlns="http://www.w3.org/2000/svg">
<path d="M16.4745 0.0478792C14.41 0.266629 12.3456 1.25784 10.8759 2.72757C9.58388 4.02639 8.78407 5.51663 8.4286 7.30081C8.24403 8.23733 8.27138 9.74124 8.49696 10.7051C8.88661 12.4004 9.67274 13.8018 10.9374 15.0459C12.2089 16.2969 13.8222 17.1377 15.7294 17.5479C16.6249 17.7393 18.4706 17.7188 19.4071 17.5137C21.3212 17.083 22.8456 16.2627 24.1308 14.9707C25.4159 13.6787 26.2294 12.1612 26.5643 10.4043C26.7079 9.67288 26.7284 8.17581 26.5985 7.4512C25.9901 3.99905 23.3378 1.18948 19.8583 0.307645C18.8192 0.0410433 17.4794 -0.0614958 16.4745 0.0478792ZM18.6347 4.63479C20.5897 5.15432 21.8817 6.69925 21.9911 8.64749C22.039 9.47464 21.9296 9.96682 21.5263 10.794C21.0409 11.7783 20.0634 12.6123 18.9354 12.9883C18.3202 13.2002 17.1034 13.2481 16.4403 13.0977C15.4901 12.8721 14.4989 12.25 13.9179 11.5117C12.1884 9.30374 12.9472 6.17288 15.5106 4.94925C15.7909 4.81936 16.1874 4.66897 16.3993 4.61429C16.9735 4.47757 18.0673 4.4844 18.6347 4.63479Z" fill="black"/>
<path d="M8.16209 17.7119C7.82713 17.8076 7.3076 18.1836 7.06151 18.5117C6.93846 18.6758 6.7744 19.0244 6.69237 19.291C6.51463 19.8721 6.54881 20.3164 6.79491 20.7402C7.28709 21.5811 9.31737 22.9688 10.999 23.6182C12.0654 24.0352 14.0752 24.4863 15.4697 24.623C15.5723 24.6367 15.6611 24.6709 15.6611 24.6982C15.6611 24.7256 14.0752 26.2773 12.1406 28.1367C8.22362 31.9033 8.27147 31.8486 8.27147 32.6758C8.27147 33.2568 8.53807 33.8174 9.03026 34.2822C9.53612 34.7539 10.0283 34.959 10.664 34.959C11.5049 34.9658 11.6211 34.877 14.7656 31.835L17.5068 29.1758L17.999 29.6406C18.2724 29.9004 19.5371 31.124 20.8154 32.3545C22.374 33.8652 23.249 34.665 23.4814 34.7812C23.7685 34.9316 23.9121 34.9658 24.3701 34.9658C24.8555 34.9658 24.9717 34.9385 25.375 34.7402C26.5644 34.1592 27.1045 32.8945 26.5918 31.8828C26.4209 31.5342 25.9424 31.0488 22.873 28.1025C20.9316 26.25 19.3662 24.7051 19.3867 24.6709C19.4072 24.6367 19.5234 24.6094 19.6396 24.6094C20.3711 24.6094 22.7773 24.0762 23.8437 23.6797C25.2656 23.1465 26.8174 22.2031 27.6924 21.3281C28.4717 20.5557 28.5947 20.0293 28.2324 19.0586C27.9385 18.2588 27.2139 17.7119 26.3799 17.6504C25.7099 17.6025 25.1494 17.7939 24.3017 18.3613C20.289 21.0342 14.7314 21.0342 10.7051 18.3613C9.7412 17.7188 8.8867 17.5 8.16209 17.7119Z" fill="black"/>
</svg>
