<svg width="27" height="27" viewBox="0 0 27 27" fill="none" xmlns="http://www.w3.org/2000/svg">
<path d="M12.3715 0.944988C10.3249 1.20959 8.58071 2.04659 7.05791 3.50459C5.72951 4.77899 4.73591 6.60959 4.40111 8.38079C4.04471 10.2762 4.28771 11.7342 5.34071 14.121C6.67991 17.1396 9.36911 21.3516 12.5983 25.488C12.9169 25.8984 13.2409 26.136 13.4785 26.136C13.5487 26.136 13.7053 26.0982 13.8241 26.0496C14.0023 25.9794 14.1697 25.7904 14.8933 24.8508C18.0307 20.7468 20.4877 16.8372 21.7621 13.905C22.0969 13.1274 22.5397 11.8206 22.6261 11.3508C22.8043 10.341 22.7881 9.32039 22.5721 8.25659C22.0645 5.76179 20.4391 3.49919 18.1819 2.13839C17.3233 1.62539 16.0651 1.17719 14.9851 0.998988C14.2561 0.874788 13.0951 0.853188 12.3715 0.944988ZM14.7421 2.61899C15.4279 2.72159 16.1947 2.96459 16.8535 3.29399C18.3277 4.01759 19.6129 5.31359 20.3473 6.80939C20.9899 8.12699 21.2599 9.74699 21.0385 10.9242C20.6227 13.1112 18.6949 16.7184 15.5251 21.222C14.4667 22.7286 13.5703 23.922 13.5001 23.922C13.4191 23.922 12.1771 22.2318 11.0107 20.547C8.58071 17.037 6.94451 14.0832 6.23711 11.9556C5.94551 11.0754 5.86991 10.5678 5.90231 9.77399C5.99951 7.48979 7.12271 5.40539 9.00731 3.99599C9.94151 3.29939 11.1295 2.79179 12.2257 2.61899C12.8413 2.52179 14.0995 2.52179 14.7421 2.61899Z" fill="#626262"/>
<path d="M12.8791 4.91399C11.8099 5.08679 10.7569 5.68079 10.0981 6.49619C9.74175 6.93359 9.36915 7.66799 9.22875 8.19179C9.05595 8.83979 9.06675 9.80639 9.25575 10.4382C9.84435 12.4146 11.4967 13.6728 13.5001 13.6728C15.2227 13.6728 16.7401 12.7062 17.4745 11.151C17.7985 10.4544 17.8903 10.0386 17.8903 9.26099C17.8849 8.46719 17.7715 7.98119 17.4151 7.29539C16.6753 5.85899 15.2983 4.96799 13.6945 4.89239C13.4245 4.87619 13.0573 4.88699 12.8791 4.91399ZM14.1589 6.61499C14.6611 6.74459 15.0715 6.97139 15.4225 7.31699C16.5241 8.39699 16.5349 10.1358 15.4387 11.2266C14.2021 12.4632 12.2203 12.2688 11.2159 10.8108C10.4869 9.74699 10.6273 8.26199 11.5507 7.33859C12.2257 6.66899 13.2571 6.37739 14.1589 6.61499Z" fill="#626262"/>
</svg>
