<svg width="107" height="14" viewBox="0 0 107 14" fill="none" xmlns="http://www.w3.org/2000/svg">
<path d="M32.0794 4.2157C22.3317 -0.295915 7.98078 2.33586 2.02382 4.2157C-4.90792 7.33913 7.61976 8.40918 14.7501 8.55377C26.664 4.2157 36.141 7.68616 41.0149 9.8552C49.9503 13.8318 49.138 15.9285 56.1781 11.5904C59.9688 8.55377 62.6765 7.25235 64.8427 5.95092L81.089 4.2157C83.905 4.2157 87.3167 7.10775 88.6706 8.55377C93.6528 13.0654 100.494 9.8552 103.292 7.68615C110.007 3.17454 106.09 3.49268 103.292 4.2157C97.8768 8.38027 92.9127 5.95094 91.1075 4.2157C81.1432 -3.41934 67.8212 1.03443 62.4058 4.2157C50.0586 9.07436 37.0436 6.24014 32.0794 4.2157Z" fill="#039BE5"/>
</svg>
