<svg width="27" height="27" viewBox="0 0 27 27" fill="none" xmlns="http://www.w3.org/2000/svg">
<path d="M10.6261 2.61564C4.79366 3.40138 1.14445 9.27072 3.03761 14.8131C3.82863 17.1176 5.50031 19.0213 7.7257 20.134C9.8087 21.1729 12.3241 21.3733 14.5812 20.6666C15.5251 20.3713 16.8909 19.6488 17.587 19.0688L17.7452 18.9369L20.9093 22.0957C24.3423 25.5182 24.1735 25.3811 24.664 25.2861C24.9224 25.2387 25.2388 24.9223 25.2862 24.6639C25.3812 24.1735 25.5183 24.3422 22.0958 20.9092L18.937 17.7451L19.0689 17.5869C19.38 17.2125 19.8968 16.3793 20.1657 15.8203C21.906 12.1975 21.136 7.93654 18.2357 5.13634C16.2054 3.17463 13.3841 2.24123 10.6261 2.61564ZM13.2259 4.3506C15.0821 4.71447 16.738 5.75334 17.8771 7.26681C18.5521 8.1633 19.0056 9.17052 19.2587 10.3254C19.4116 11.0162 19.4222 12.5139 19.2851 13.1836C18.8843 15.1295 17.8823 16.7326 16.3583 17.877C15.4618 18.552 14.4546 19.0055 13.2997 19.2586C12.5614 19.4221 11.0638 19.4221 10.3255 19.2586C7.98409 18.7471 6.06456 17.2758 5.04152 15.2192C4.52999 14.1908 4.29269 13.2838 4.23995 12.1553C4.08702 8.94377 5.96437 6.01701 8.9755 4.77775C9.48702 4.56681 10.2833 4.3506 10.837 4.27677C11.3538 4.20295 12.7038 4.24513 13.2259 4.3506Z" fill="black"/>
</svg>
