<svg width="16" height="15" viewBox="0 0 16 15" fill="none" xmlns="http://www.w3.org/2000/svg">
<path d="M7.52772 0.358693C7.68337 -0.0890874 8.31663 -0.0890865 8.47228 0.358694L10.0018 4.7589C10.0705 4.95643 10.2548 5.09037 10.4639 5.09463L15.1214 5.18954C15.5953 5.1992 15.791 5.80147 15.4133 6.08787L11.7011 8.90226C11.5344 9.0286 11.464 9.24532 11.5246 9.44549L12.8735 13.9043C13.0108 14.3581 12.4985 14.7303 12.1094 14.4595L8.28559 11.7987C8.11393 11.6793 7.88607 11.6793 7.71441 11.7987L3.89064 14.4595C3.50152 14.7303 2.98919 14.3581 3.12647 13.9043L4.47544 9.44548C4.536 9.24532 4.46559 9.0286 4.29894 8.90226L0.586742 6.08787C0.208976 5.80147 0.404667 5.1992 0.878629 5.18954L5.53612 5.09463C5.7452 5.09037 5.92955 4.95643 5.99821 4.7589L7.52772 0.358693Z" fill="#FFA800"/>
</svg>
