<svg width="35" height="35" viewBox="0 0 35 35" fill="none" xmlns="http://www.w3.org/2000/svg">
<path d="M32.6074 3.10329C30.2832 3.95778 1.60642 14.9705 1.18259 15.1756C-0.218779 15.8386 -0.382842 16.7136 0.786103 17.3084C0.902314 17.3699 2.83688 17.9851 5.09958 18.6892L9.20798 19.9675L18.5322 14.1297C23.666 10.9236 27.9658 8.25759 28.0888 8.21657C28.4101 8.1072 28.6836 8.11403 28.8066 8.24391C28.8955 8.33278 28.9023 8.3738 28.8271 8.50368C28.7861 8.59255 25.375 11.6892 21.2597 15.3806C17.1445 19.0789 13.7607 22.1277 13.747 22.1619C13.7334 22.1961 13.5967 24.0418 13.4394 26.2634L13.1523 30.2966L13.4668 30.2556C13.6377 30.2351 13.9043 30.1463 14.0615 30.0574C14.2256 29.9754 15.292 29.0047 16.4472 27.9041C17.5957 26.8035 18.5801 25.8806 18.6279 25.867C18.6758 25.8465 20.5078 27.1453 22.7021 28.7517C24.8896 30.3582 26.8515 31.7459 27.0634 31.8416C27.6172 32.1013 28.2324 32.1218 28.6357 31.9099C28.998 31.7185 29.3467 31.24 29.497 30.741C29.5517 30.5496 30.8095 24.7595 32.2793 17.8757C34.7334 6.41872 34.959 5.3113 34.959 4.71657C34.959 4.15602 34.9384 4.01931 34.7881 3.72536C34.6855 3.51345 34.5009 3.30153 34.3232 3.17849C33.9199 2.89821 33.25 2.86403 32.6074 3.10329Z" fill="black"/>
</svg>
