<svg width="35" height="35" viewBox="0 0 35 35" fill="none" xmlns="http://www.w3.org/2000/svg">
<path d="M23.0166 3.39068C20.2275 3.89654 18.0195 5.93365 17.2881 8.69537C17.1582 9.16705 17.1309 9.44732 17.1309 10.3907C17.124 11.0127 17.1445 11.6485 17.1787 11.8126L17.2266 12.1133L16.7686 12.0655C13.7539 11.792 11.3203 11.1016 8.89356 9.83697C6.65137 8.66802 4.32031 6.82916 2.8916 5.11334C2.67285 4.85357 2.46777 4.65533 2.43359 4.669C2.39258 4.68267 2.24902 4.95611 2.10547 5.28423C1.12109 7.50591 1.30566 10.0694 2.58398 12.0655C2.95996 12.6465 3.5752 13.337 4.07422 13.7335L4.58691 14.1504H4.30664C3.70508 14.1504 2.4541 13.8086 1.77734 13.4669C1.63379 13.3917 1.4834 13.3301 1.45605 13.3301C1.36035 13.3301 1.4834 14.5811 1.64063 15.1827C2.2627 17.5411 4.0127 19.4073 6.34375 20.1866C6.72656 20.3165 7 20.4395 6.94531 20.46C6.6377 20.5762 5.62598 20.6583 4.83984 20.6309L3.95117 20.5899L3.99902 20.7676C4.07422 21.0684 4.58008 22.0254 4.89453 22.4629C6.09766 24.1583 8.07324 25.3204 10.001 25.4776C10.2881 25.4981 10.5273 25.5391 10.5273 25.5733C10.5273 25.6827 8.99609 26.6329 8.05957 27.0977C5.92676 28.1573 3.81445 28.6153 1.33301 28.5606L0.0683594 28.5333L0.423828 28.7588C0.950195 29.087 2.53613 29.8868 3.24707 30.1807C7.08203 31.7735 11.5596 32.1358 15.7842 31.1993C21.998 29.8184 27.1182 25.4981 29.7022 19.4483C30.8027 16.8643 31.3564 14.3213 31.418 11.587L31.4385 10.3565L31.9375 9.96002C32.5664 9.44732 33.2773 8.77056 33.8174 8.169C34.2754 7.64947 34.9453 6.75396 34.9043 6.71978C34.8906 6.70611 34.6855 6.77447 34.4463 6.87017C33.5371 7.23931 31.4385 7.77252 31.124 7.71099C31.0488 7.69732 31.1035 7.62896 31.3018 7.49908C31.8213 7.15728 32.7441 6.20709 33.1338 5.61919C33.4756 5.11334 33.9746 4.10845 33.9746 3.93072C33.9746 3.8897 33.5576 4.06744 33.0449 4.32037C32.1152 4.77154 30.9053 5.20904 29.9619 5.43462L29.4629 5.55084L29.0459 5.16802C27.4463 3.68462 25.1426 3.00787 23.0166 3.39068Z" fill="black"/>
</svg>
