<svg width="285" height="14" viewBox="0 0 285 14" fill="none" xmlns="http://www.w3.org/2000/svg">
<path d="M199.555 4.2157C225.518 -0.295915 263.743 2.33586 279.609 4.2157C298.073 7.33913 264.704 8.40918 245.712 8.55377C213.979 4.2157 188.737 7.68615 175.755 9.8552C151.955 13.8318 154.119 15.9285 135.367 11.5904C125.27 8.55377 118.058 7.25235 112.288 5.95092L69.0153 4.2157C61.5147 4.2157 52.4274 7.10775 48.8213 8.55377C35.551 13.0654 17.3284 9.8552 9.87582 7.68615C-8.01025 3.17454 2.42328 3.49268 9.87582 4.2157C24.3001 8.38027 37.5223 5.95094 42.3304 4.2157C68.871 -3.41934 104.355 1.03443 118.779 4.2157C151.666 9.07436 186.333 6.24014 199.555 4.2157Z" fill="#039BE5"/>
</svg>
