<svg width="459" height="19" viewBox="0 0 459 19" fill="none" xmlns="http://www.w3.org/2000/svg">
<path d="M137.612 5.7213C95.7965 -0.401599 34.2353 3.17009 8.68162 5.7213C-21.0536 9.96025 32.6866 11.4125 63.2736 11.6087C114.381 5.7213 155.035 10.4312 175.942 13.3749C214.273 18.7717 210.788 21.6173 240.988 15.7299C257.249 11.6087 268.865 9.84247 278.157 8.07625L347.849 5.7213C359.929 5.7213 374.564 9.64623 380.372 11.6087C401.744 17.7316 431.092 13.3749 443.095 10.4312C471.901 4.30831 455.097 4.74006 443.095 5.7213C419.864 11.3732 398.569 8.07627 390.826 5.7213C348.081 -4.64053 290.934 1.40387 267.703 5.7213C214.737 12.3152 158.906 8.46876 137.612 5.7213Z" fill="#039BE5"/>
</svg>
