<svg width="99" height="77" viewBox="0 0 99 77" fill="none" xmlns="http://www.w3.org/2000/svg">
<path d="M69 66C85.4 61.6 95.5 61.8334 98.5 62.5V73.5C92.1 69.5 76.1667 72.8333 69 75C48.2 82.2 39 63 37 52.5C31 21.3 9.83333 4.5 0 0H6.5C28.1 12.4 39.1667 36.1667 42 46.5C46.8 64.9 62 67.1667 69 66Z" fill="#039BE5"/>
<path d="M77.4366 39.6466C89.4244 37.0035 96.8071 37.1436 99 37.5441V44.1519C94.3218 41.749 82.6751 43.7514 77.4366 45.0529C62.2325 49.378 55.5076 37.8444 54.0457 31.537C49.6599 12.795 34.1878 2.70317 27 0H31.7513C47.5401 7.44875 55.6294 21.7255 57.7005 27.9328C61.2091 38.9858 72.3198 40.3474 77.4366 39.6466Z" fill="#039BE5"/>
</svg>
